<?xml version="1.0" standalone="no"?>
<!DOCTYPE svg PUBLIC "-//W3C//DTD SVG 20010904//EN"
 "http://www.w3.org/TR/2001/REC-SVG-20010904/DTD/svg10.dtd">
<svg version="1.0" xmlns="http://www.w3.org/2000/svg"
 width="96.000000pt" height="96.000000pt" viewBox="0 0 96.000000 96.000000"
 preserveAspectRatio="xMidYMid meet">
<metadata>
Created by potrace 1.14, written by Peter Selinger 2001-2017
</metadata>
<g transform="translate(0.000000,96.000000) scale(0.100000,-0.100000)"
fill="#000000" stroke="none">
<path d="M422 921 c-22 -20 -29 -34 -25 -49 4 -17 0 -22 -23 -27 -16 -3 -44
-10 -63 -15 -32 -9 -37 -6 -68 25 -19 19 -44 37 -56 40 -25 7 -77 -9 -77 -23
0 -5 25 -44 56 -86 l55 -76 259 0 259 0 55 76 c31 42 56 81 56 86 0 14 -52 30
-77 23 -12 -3 -37 -21 -56 -40 -31 -31 -36 -34 -68 -25 -19 5 -47 12 -63 15
-23 5 -27 10 -23 27 8 28 -45 78 -83 78 -17 0 -40 -11 -58 -29z m84 -17 c20
-14 24 -22 19 -44 -7 -30 4 -36 98 -59 67 -16 97 -14 104 7 7 21 43 51 61 52
21 0 13 -16 -13 -28 -14 -6 -25 -20 -25 -30 0 -9 -7 -28 -16 -40 -14 -20 -23
-22 -106 -22 -67 0 -97 4 -119 17 -27 16 -31 16 -58 0 -22 -13 -52 -17 -119
-17 -83 0 -92 2 -106 22 -9 12 -16 31 -16 40 0 10 -11 24 -25 30 -26 12 -34
28 -12 28 17 -1 53 -31 60 -52 7 -21 37 -23 104 -7 94 23 105 29 98 57 -5 20
-1 30 17 44 28 21 24 21 54 2z"/>
<path d="M467 884 c-14 -15 -6 -34 14 -34 14 0 19 5 17 17 -3 18 -20 27 -31
17z"/>
<path d="M184 666 c-3 -13 -4 -125 -2 -248 4 -282 16 -315 133 -376 46 -24 60
-27 165 -27 105 0 119 3 165 27 117 61 129 94 133 376 2 123 1 235 -2 248 l-6
24 -290 0 -290 0 -6 -24z m556 -236 c0 -257 -3 -275 -63 -327 -95 -83 -299
-83 -394 0 -60 52 -63 70 -63 327 l0 230 260 0 260 0 0 -230z"/>
<path d="M461 626 c-17 -20 13 -43 34 -26 12 10 13 16 4 26 -6 8 -15 14 -19
14 -4 0 -13 -6 -19 -14z"/>
<path d="M450 560 c-8 -5 -23 -11 -33 -14 -9 -3 -20 -14 -23 -23 -3 -10 -11
-28 -16 -40 -8 -17 -7 -35 4 -70 14 -45 18 -48 52 -51 29 -3 36 -7 32 -18 -3
-9 -6 -22 -6 -29 0 -8 -10 -20 -22 -26 -17 -9 -24 -9 -33 5 -7 9 -15 16 -19
16 -11 0 -7 -35 6 -48 9 -9 9 -18 0 -36 -9 -21 -19 -25 -63 -28 -31 -2 -54 -8
-57 -15 -3 -10 43 -13 208 -13 165 0 211 3 208 13 -3 8 -34 13 -96 15 -89 3
-92 3 -92 26 0 20 7 26 50 36 38 9 50 16 50 31 0 10 -4 19 -10 19 -5 0 -7 7
-4 15 4 9 -3 16 -20 21 -22 5 -24 8 -11 21 8 8 15 23 15 33 0 10 5 22 10 25 6
3 10 17 10 31 0 13 -4 24 -10 24 -5 0 -10 11 -10 25 0 19 -9 29 -42 45 -46 22
-55 23 -78 10z m63 -213 c3 -8 1 -20 -4 -28 -5 -9 -9 -9 -9 -2 0 6 -3 18 -6
27 -3 9 -2 16 4 16 5 0 12 -6 15 -13z m-53 -127 c0 -11 -7 -20 -15 -20 -13 0
-14 4 -5 20 6 11 13 20 15 20 3 0 5 -9 5 -20z"/>
<path d="M431 141 c-27 -15 -30 -19 -16 -24 9 -4 30 -7 46 -7 24 0 29 -4 29
-25 0 -14 5 -25 10 -25 6 0 10 23 10 50 0 45 -2 50 -22 50 -13 -1 -38 -9 -57
-19z"/>
</g>
</svg>
